<?xml version="1.0" standalone="no"?>
<!DOCTYPE svg PUBLIC "-//W3C//DTD SVG 20010904//EN"
 "http://www.w3.org/TR/2001/REC-SVG-20010904/DTD/svg10.dtd">
<svg version="1.0" xmlns="http://www.w3.org/2000/svg"
 width="300.000000pt" height="300.000000pt" viewBox="0 0 300.000000 300.000000"
 preserveAspectRatio="xMidYMid meet">
<metadata>
Created by potrace 1.11, written by Peter Selinger 2001-2013
</metadata>
<g transform="translate(0.000000,300.000000) scale(0.100000,-0.100000)"
fill="#000000" stroke="none">
<path d="M1499 2896 c-2 -2 -47 -6 -99 -9 -482 -27 -954 -339 -1169 -774 -107
-216 -151 -415 -146 -653 3 -167 17 -253 63 -395 31 -94 100 -248 114 -253 4
-2 8 -8 8 -14 0 -29 127 -195 220 -288 112 -112 170 -164 170 -153 0 3 10 -3
23 -14 31 -28 85 -59 200 -116 120 -58 242 -98 352 -113 221 -32 389 -27 575
15 120 27 247 69 275 91 6 4 21 11 34 15 31 9 159 87 236 142 68 49 189 165
244 233 20 25 44 52 53 61 10 9 18 21 18 26 0 6 9 21 19 35 51 64 154 291 184
403 39 147 50 244 44 399 -6 167 -23 268 -67 397 -59 174 -132 307 -240 439
-232 283 -601 485 -945 515 -38 3 -91 8 -116 10 -25 3 -48 3 -50 1z m-312
-162 c-3 -3 -12 -4 -19 -1 -8 3 -5 6 6 6 11 1 17 -2 13 -5z m-27 -45 c0 -11
-4 -17 -10 -14 -5 3 -10 13 -10 21 0 8 5 14 10 14 6 0 10 -9 10 -21z m928
-104 c-11 -11 -37 7 -31 22 5 13 8 13 21 -1 9 -9 13 -18 10 -21z"/>
</g>
</svg>
